<svg xmlns="http://www.w3.org/2000/svg" xmlns:xlink="http://www.w3.org/1999/xlink" width="500" zoomAndPan="magnify" viewBox="0 0 375 374.999991" height="500" preserveAspectRatio="xMidYMid meet" version="1.2"><defs><clipPath id="172e5e194e"><path d="M 145.820312 114.898438 L 229.070312 114.898438 L 229.070312 210.148438 L 145.820312 210.148438 Z M 145.820312 114.898438 "/></clipPath></defs><g id="fee2da8358"><rect x="0" width="375" y="0" height="374.999991" style="fill:#ffffff;fill-opacity:1;stroke:none;"/><rect x="0" width="375" y="0" height="374.999991" style="fill:#ffffff;fill-opacity:1;stroke:none;"/><g style="fill:#000000;fill-opacity:1;"><g transform="translate(95.245596, 239.831607)"><path style="stroke:none" d="M 6.234375 -8.203125 L 6.234375 0 L 2.28125 0 L 2.28125 -22.265625 C 4.914062 -22.367188 6.457031 -22.421875 6.90625 -22.421875 C 10.414062 -22.421875 12.984375 -21.878906 14.609375 -20.796875 C 16.242188 -19.722656 17.0625 -18.039062 17.0625 -15.75 C 17.0625 -10.644531 14.050781 -8.09375 8.03125 -8.09375 C 7.582031 -8.09375 6.984375 -8.128906 6.234375 -8.203125 Z M 6.234375 -18.84375 L 6.234375 -11.703125 C 6.898438 -11.640625 7.425781 -11.609375 7.8125 -11.609375 C 9.613281 -11.609375 10.929688 -11.90625 11.765625 -12.5 C 12.597656 -13.101562 13.015625 -14.085938 13.015625 -15.453125 C 13.015625 -17.765625 11.15625 -18.921875 7.4375 -18.921875 C 7.019531 -18.921875 6.617188 -18.894531 6.234375 -18.84375 Z M 6.234375 -18.84375 "/></g></g><g style="fill:#000000;fill-opacity:1;"><g transform="translate(113.078858, 239.831607)"><path style="stroke:none" d="M 16.59375 -6.984375 L 4.953125 -6.984375 C 5.023438 -5.679688 5.472656 -4.671875 6.296875 -3.953125 C 7.117188 -3.234375 8.222656 -2.875 9.609375 -2.875 C 11.335938 -2.875 12.65625 -3.328125 13.5625 -4.234375 L 15.03125 -1.328125 C 13.695312 -0.242188 11.703125 0.296875 9.046875 0.296875 C 6.566406 0.296875 4.601562 -0.425781 3.15625 -1.875 C 1.707031 -3.332031 0.984375 -5.363281 0.984375 -7.96875 C 0.984375 -10.53125 1.773438 -12.609375 3.359375 -14.203125 C 4.953125 -15.796875 6.859375 -16.59375 9.078125 -16.59375 C 11.441406 -16.59375 13.335938 -15.882812 14.765625 -14.46875 C 16.191406 -13.0625 16.90625 -11.269531 16.90625 -9.09375 C 16.90625 -8.625 16.800781 -7.921875 16.59375 -6.984375 Z M 5.09375 -9.84375 L 13.09375 -9.84375 C 12.832031 -12.21875 11.515625 -13.40625 9.140625 -13.40625 C 6.972656 -13.40625 5.625 -12.21875 5.09375 -9.84375 Z M 5.09375 -9.84375 "/></g></g><g style="fill:#000000;fill-opacity:1;"><g transform="translate(130.532144, 239.831607)"><path style="stroke:none" d="M 11.46875 -12.734375 C 10.789062 -13.179688 10.046875 -13.40625 9.234375 -13.40625 C 8.347656 -13.40625 7.5625 -13.003906 6.875 -12.203125 C 6.195312 -11.410156 5.859375 -10.4375 5.859375 -9.28125 L 5.859375 0 L 2.046875 0 L 2.046875 -16.28125 L 5.859375 -16.28125 L 5.859375 -14.796875 C 6.921875 -15.992188 8.332031 -16.59375 10.09375 -16.59375 C 11.394531 -16.59375 12.390625 -16.394531 13.078125 -16 Z M 11.46875 -12.734375 "/></g></g><g style="fill:#000000;fill-opacity:1;"><g transform="translate(143.395316, 239.831607)"><path style="stroke:none" d="M 11.125 -19.484375 C 10.300781 -19.753906 9.664062 -19.890625 9.21875 -19.890625 C 8.5 -19.890625 7.882812 -19.578125 7.375 -18.953125 C 6.875 -18.335938 6.625 -17.582031 6.625 -16.6875 C 6.625 -16.550781 6.628906 -16.414062 6.640625 -16.28125 L 10.015625 -16.28125 L 10.015625 -13.15625 L 6.703125 -13.15625 L 6.703125 0 L 2.90625 0 L 2.90625 -13.15625 L 0.53125 -13.15625 L 0.53125 -16.28125 L 2.921875 -16.28125 C 3.003906 -18.28125 3.59375 -19.890625 4.6875 -21.109375 C 5.789062 -22.335938 7.210938 -22.953125 8.953125 -22.953125 C 9.859375 -22.953125 10.957031 -22.753906 12.25 -22.359375 Z M 11.125 -19.484375 "/></g></g><g style="fill:#000000;fill-opacity:1;"><g transform="translate(154.464999, 239.831607)"><path style="stroke:none" d="M 16.59375 -6.984375 L 4.953125 -6.984375 C 5.023438 -5.679688 5.472656 -4.671875 6.296875 -3.953125 C 7.117188 -3.234375 8.222656 -2.875 9.609375 -2.875 C 11.335938 -2.875 12.65625 -3.328125 13.5625 -4.234375 L 15.03125 -1.328125 C 13.695312 -0.242188 11.703125 0.296875 9.046875 0.296875 C 6.566406 0.296875 4.601562 -0.425781 3.15625 -1.875 C 1.707031 -3.332031 0.984375 -5.363281 0.984375 -7.96875 C 0.984375 -10.53125 1.773438 -12.609375 3.359375 -14.203125 C 4.953125 -15.796875 6.859375 -16.59375 9.078125 -16.59375 C 11.441406 -16.59375 13.335938 -15.882812 14.765625 -14.46875 C 16.191406 -13.0625 16.90625 -11.269531 16.90625 -9.09375 C 16.90625 -8.625 16.800781 -7.921875 16.59375 -6.984375 Z M 5.09375 -9.84375 L 13.09375 -9.84375 C 12.832031 -12.21875 11.515625 -13.40625 9.140625 -13.40625 C 6.972656 -13.40625 5.625 -12.21875 5.09375 -9.84375 Z M 5.09375 -9.84375 "/></g></g><g style="fill:#000000;fill-opacity:1;"><g transform="translate(171.918286, 239.831607)"><path style="stroke:none" d="M 14.828125 -15 L 13.203125 -12.15625 C 12.304688 -12.988281 11.109375 -13.40625 9.609375 -13.40625 C 8.171875 -13.40625 7.03125 -12.925781 6.1875 -11.96875 C 5.351562 -11.007812 4.9375 -9.6875 4.9375 -8 C 4.9375 -4.582031 6.566406 -2.875 9.828125 -2.875 C 11.234375 -2.875 12.472656 -3.335938 13.546875 -4.265625 L 14.953125 -1.28125 C 13.847656 -0.59375 12.878906 -0.160156 12.046875 0.015625 C 11.222656 0.203125 10.25 0.296875 9.125 0.296875 C 6.613281 0.296875 4.628906 -0.429688 3.171875 -1.890625 C 1.710938 -3.359375 0.984375 -5.394531 0.984375 -8 C 0.984375 -10.5625 1.78125 -12.632812 3.375 -14.21875 C 4.96875 -15.800781 7.140625 -16.59375 9.890625 -16.59375 C 11.785156 -16.59375 13.429688 -16.0625 14.828125 -15 Z M 14.828125 -15 "/></g></g><g style="fill:#000000;fill-opacity:1;"><g transform="translate(187.410894, 239.831607)"><path style="stroke:none" d="M 2.625 -13.234375 L 0.75 -13.234375 L 0.75 -16.28125 L 2.625 -16.28125 L 2.625 -19.59375 L 6.4375 -21 L 6.4375 -16.28125 L 10.90625 -16.28125 L 10.90625 -13.234375 L 6.4375 -13.234375 L 6.4375 -6.09375 C 6.4375 -4.925781 6.617188 -4.101562 6.984375 -3.625 C 7.347656 -3.144531 7.984375 -2.90625 8.890625 -2.90625 C 9.804688 -2.90625 10.660156 -3.15625 11.453125 -3.65625 L 11.453125 -0.15625 C 10.566406 0.144531 9.304688 0.296875 7.671875 0.296875 C 6.054688 0.296875 4.8125 -0.160156 3.9375 -1.078125 C 3.0625 -1.992188 2.625 -3.296875 2.625 -4.984375 Z M 2.625 -13.234375 "/></g></g><g style="fill:#000000;fill-opacity:1;"><g transform="translate(199.316525, 239.831607)"><path style="stroke:none" d="M 17.546875 -21.09375 L 15.921875 -17.828125 C 15.035156 -18.703125 13.613281 -19.140625 11.65625 -19.140625 C 9.800781 -19.140625 8.28125 -18.359375 7.09375 -16.796875 C 5.914062 -15.242188 5.328125 -13.28125 5.328125 -10.90625 C 5.328125 -8.519531 5.875 -6.625 6.96875 -5.21875 C 8.070312 -3.820312 9.539062 -3.125 11.375 -3.125 C 13.46875 -3.125 15.109375 -3.875 16.296875 -5.375 L 18.140625 -2.1875 C 16.523438 -0.476562 14.160156 0.375 11.046875 0.375 C 7.941406 0.375 5.523438 -0.644531 3.796875 -2.6875 C 2.078125 -4.738281 1.21875 -7.53125 1.21875 -11.0625 C 1.21875 -14.363281 2.171875 -17.117188 4.078125 -19.328125 C 5.992188 -21.546875 8.441406 -22.65625 11.421875 -22.65625 C 13.972656 -22.65625 16.015625 -22.132812 17.546875 -21.09375 Z M 17.546875 -21.09375 "/></g></g><g style="fill:#000000;fill-opacity:1;"><g transform="translate(217.92494, 239.831607)"><path style="stroke:none" d="M 11.109375 -1.625 C 10.765625 -1.0625 10.164062 -0.597656 9.3125 -0.234375 C 8.457031 0.117188 7.5625 0.296875 6.625 0.296875 C 4.875 0.296875 3.492188 -0.140625 2.484375 -1.015625 C 1.484375 -1.890625 0.984375 -3.132812 0.984375 -4.75 C 0.984375 -6.632812 1.691406 -8.109375 3.109375 -9.171875 C 4.523438 -10.234375 6.535156 -10.765625 9.140625 -10.765625 C 9.585938 -10.765625 10.113281 -10.6875 10.71875 -10.53125 C 10.71875 -12.445312 9.503906 -13.40625 7.078125 -13.40625 C 5.648438 -13.40625 4.457031 -13.171875 3.5 -12.703125 L 2.671875 -15.640625 C 3.984375 -16.273438 5.539062 -16.59375 7.34375 -16.59375 C 9.820312 -16.59375 11.640625 -16.023438 12.796875 -14.890625 C 13.953125 -13.765625 14.53125 -11.625 14.53125 -8.46875 L 14.53125 -4.984375 C 14.53125 -2.816406 14.96875 -1.453125 15.84375 -0.890625 C 15.53125 -0.347656 15.179688 -0.015625 14.796875 0.109375 C 14.410156 0.234375 13.96875 0.296875 13.46875 0.296875 C 12.925781 0.296875 12.4375 0.0976562 12 -0.296875 C 11.5625 -0.703125 11.265625 -1.144531 11.109375 -1.625 Z M 10.75 -7.65625 C 10.101562 -7.789062 9.617188 -7.859375 9.296875 -7.859375 C 6.296875 -7.859375 4.796875 -6.875 4.796875 -4.90625 C 4.796875 -3.445312 5.640625 -2.71875 7.328125 -2.71875 C 9.609375 -2.71875 10.75 -3.859375 10.75 -6.140625 Z M 10.75 -7.65625 "/></g></g><g style="fill:#000000;fill-opacity:1;"><g transform="translate(234.071107, 239.831607)"><path style="stroke:none" d="M 11.46875 -12.734375 C 10.789062 -13.179688 10.046875 -13.40625 9.234375 -13.40625 C 8.347656 -13.40625 7.5625 -13.003906 6.875 -12.203125 C 6.195312 -11.410156 5.859375 -10.4375 5.859375 -9.28125 L 5.859375 0 L 2.046875 0 L 2.046875 -16.28125 L 5.859375 -16.28125 L 5.859375 -14.796875 C 6.921875 -15.992188 8.332031 -16.59375 10.09375 -16.59375 C 11.394531 -16.59375 12.390625 -16.394531 13.078125 -16 Z M 11.46875 -12.734375 "/></g></g><g style="fill:#000000;fill-opacity:1;"><g transform="translate(246.934279, 239.831607)"><path style="stroke:none" d="M 0.84375 4.1875 L 3.234375 1.21875 C 4.566406 2.4375 6.046875 3.046875 7.671875 3.046875 C 8.773438 3.046875 9.679688 2.878906 10.390625 2.546875 C 11.097656 2.222656 11.453125 1.78125 11.453125 1.21875 C 11.453125 0.25 10.664062 -0.234375 9.09375 -0.234375 C 8.664062 -0.234375 8.03125 -0.179688 7.1875 -0.078125 C 6.351562 0.0234375 5.722656 0.078125 5.296875 0.078125 C 2.679688 0.078125 1.375 -0.859375 1.375 -2.734375 C 1.375 -3.273438 1.585938 -3.800781 2.015625 -4.3125 C 2.453125 -4.832031 2.960938 -5.210938 3.546875 -5.453125 C 1.691406 -6.660156 0.765625 -8.367188 0.765625 -10.578125 C 0.765625 -12.328125 1.398438 -13.769531 2.671875 -14.90625 C 3.953125 -16.050781 5.523438 -16.625 7.390625 -16.625 C 8.847656 -16.625 10.066406 -16.347656 11.046875 -15.796875 L 12.546875 -17.53125 L 15.171875 -15.140625 L 13.359375 -13.828125 C 13.992188 -12.867188 14.3125 -11.742188 14.3125 -10.453125 C 14.3125 -8.585938 13.742188 -7.097656 12.609375 -5.984375 C 11.484375 -4.878906 10.054688 -4.328125 8.328125 -4.328125 C 8.054688 -4.328125 7.691406 -4.351562 7.234375 -4.40625 L 6.609375 -4.5 C 6.546875 -4.5 6.273438 -4.390625 5.796875 -4.171875 C 5.328125 -3.953125 5.09375 -3.726562 5.09375 -3.5 C 5.09375 -3.09375 5.441406 -2.890625 6.140625 -2.890625 C 6.453125 -2.890625 6.976562 -2.960938 7.71875 -3.109375 C 8.457031 -3.265625 9.09375 -3.34375 9.625 -3.34375 C 13.320312 -3.34375 15.171875 -1.859375 15.171875 1.109375 C 15.171875 2.753906 14.429688 4.046875 12.953125 4.984375 C 11.472656 5.921875 9.691406 6.390625 7.609375 6.390625 C 5.109375 6.390625 2.851562 5.65625 0.84375 4.1875 Z M 4.640625 -10.5625 C 4.640625 -9.601562 4.90625 -8.832031 5.4375 -8.25 C 5.96875 -7.664062 6.6875 -7.375 7.59375 -7.375 C 8.488281 -7.375 9.179688 -7.65625 9.671875 -8.21875 C 10.160156 -8.789062 10.40625 -9.570312 10.40625 -10.5625 C 10.40625 -11.382812 10.140625 -12.078125 9.609375 -12.640625 C 9.085938 -13.210938 8.414062 -13.5 7.59375 -13.5 C 6.71875 -13.5 6.003906 -13.222656 5.453125 -12.671875 C 4.910156 -12.128906 4.640625 -11.425781 4.640625 -10.5625 Z M 4.640625 -10.5625 "/></g></g><g style="fill:#000000;fill-opacity:1;"><g transform="translate(262.122907, 239.831607)"><path style="stroke:none" d="M 0.984375 -8.1875 C 0.984375 -10.664062 1.703125 -12.6875 3.140625 -14.25 C 4.578125 -15.8125 6.46875 -16.59375 8.8125 -16.59375 C 11.289062 -16.59375 13.210938 -15.84375 14.578125 -14.34375 C 15.953125 -12.84375 16.640625 -10.789062 16.640625 -8.1875 C 16.640625 -5.582031 15.941406 -3.515625 14.546875 -1.984375 C 13.148438 -0.460938 11.238281 0.296875 8.8125 0.296875 C 6.34375 0.296875 4.421875 -0.472656 3.046875 -2.015625 C 1.671875 -3.554688 0.984375 -5.613281 0.984375 -8.1875 Z M 4.9375 -8.1875 C 4.9375 -4.59375 6.226562 -2.796875 8.8125 -2.796875 C 10 -2.796875 10.941406 -3.257812 11.640625 -4.1875 C 12.335938 -5.125 12.6875 -6.457031 12.6875 -8.1875 C 12.6875 -11.71875 11.394531 -13.484375 8.8125 -13.484375 C 7.632812 -13.484375 6.691406 -13.015625 5.984375 -12.078125 C 5.285156 -11.148438 4.9375 -9.851562 4.9375 -8.1875 Z M 4.9375 -8.1875 "/></g></g><g clip-rule="nonzero" clip-path="url(#172e5e194e)"><path style=" stroke:none;fill-rule:nonzero;fill:#000000;fill-opacity:1;" d="M 229.007812 194.410156 L 227.210938 196.207031 C 218.199219 205.210938 206.257812 210.148438 193.539062 210.148438 C 167.257812 210.148438 145.886719 188.785156 145.886719 162.511719 C 145.886719 136.234375 167.257812 114.898438 193.507812 114.898438 C 206.230469 114.898438 218.199219 119.867188 227.179688 128.84375 L 223.589844 132.4375 C 215.566406 124.417969 204.882812 119.988281 193.507812 119.988281 C 170.070312 119.988281 150.976562 139.078125 150.976562 162.511719 C 150.976562 185.941406 170.070312 205.03125 193.507812 205.03125 C 204.015625 205.03125 213.949219 201.234375 221.734375 194.320312 L 216.34375 188.933594 C 210 194.441406 201.976562 197.433594 193.507812 197.433594 C 174.234375 197.433594 158.550781 181.75 158.550781 162.480469 C 158.550781 143.207031 174.234375 127.589844 193.507812 127.589844 C 202.847656 127.589844 211.617188 131.207031 218.230469 137.824219 L 220.027344 139.617188 L 207.84375 151.796875 L 206.050781 150 C 202.695312 146.648438 198.265625 144.824219 193.507812 144.824219 C 183.75 144.824219 175.789062 152.785156 175.789062 162.539062 C 175.789062 172.296875 183.75 180.253906 193.507812 180.253906 C 198.238281 180.253906 202.695312 178.398438 206.050781 175.078125 L 209.640625 178.667969 C 205.332031 182.976562 199.613281 185.34375 193.507812 185.34375 C 180.9375 185.34375 170.699219 175.109375 170.699219 162.539062 C 170.699219 149.972656 180.9375 139.738281 193.507812 139.738281 C 198.746094 139.738281 203.714844 141.503906 207.726562 144.703125 L 212.722656 139.707031 C 207.335938 135.160156 200.601562 132.675781 193.476562 132.675781 C 177.015625 132.675781 163.605469 146.082031 163.605469 162.539062 C 163.605469 179 177.015625 192.40625 193.476562 192.40625 C 201.46875 192.40625 208.953125 189.292969 214.578125 183.667969 L 216.375 181.871094 Z M 229.007812 194.410156 "/></g><g style="fill:#000000;fill-opacity:1;"><g transform="translate(101.361392, 256.969613)"><path style="stroke:none" d="M 4 0 L 2.984375 0 L 2.984375 -7.484375 L 0.15625 -7.484375 L 0.15625 -8.390625 L 6.859375 -8.390625 L 6.859375 -7.484375 L 4 -7.484375 Z M 4 0 "/></g></g><g style="fill:#000000;fill-opacity:1;"><g transform="translate(108.363437, 256.969613)"><path style="stroke:none" d="M 2.078125 -7.125 C 1.878906 -7.125 1.707031 -7.191406 1.5625 -7.328125 C 1.425781 -7.460938 1.359375 -7.628906 1.359375 -7.828125 C 1.359375 -8.015625 1.425781 -8.171875 1.5625 -8.296875 C 1.707031 -8.429688 1.878906 -8.5 2.078125 -8.5 C 2.273438 -8.5 2.441406 -8.429688 2.578125 -8.296875 C 2.722656 -8.171875 2.796875 -8.015625 2.796875 -7.828125 C 2.796875 -7.628906 2.722656 -7.460938 2.578125 -7.328125 C 2.441406 -7.191406 2.273438 -7.125 2.078125 -7.125 Z M 4.28125 -7.125 C 4.082031 -7.125 3.910156 -7.191406 3.765625 -7.328125 C 3.628906 -7.460938 3.5625 -7.628906 3.5625 -7.828125 C 3.5625 -8.015625 3.628906 -8.171875 3.765625 -8.296875 C 3.910156 -8.429688 4.082031 -8.5 4.28125 -8.5 C 4.476562 -8.5 4.644531 -8.429688 4.78125 -8.296875 C 4.925781 -8.171875 5 -8.015625 5 -7.828125 C 5 -7.628906 4.925781 -7.460938 4.78125 -7.328125 C 4.644531 -7.191406 4.476562 -7.125 4.28125 -7.125 Z M 2.84375 0.109375 C 1.988281 0.109375 1.390625 -0.207031 1.046875 -0.84375 C 0.859375 -1.207031 0.765625 -1.734375 0.765625 -2.421875 L 0.765625 -6.078125 L 1.6875 -6.078125 L 1.6875 -2.421875 C 1.6875 -1.773438 1.804688 -1.320312 2.046875 -1.0625 C 2.253906 -0.832031 2.566406 -0.71875 2.984375 -0.71875 C 3.441406 -0.71875 3.8125 -0.867188 4.09375 -1.171875 C 4.289062 -1.378906 4.429688 -1.660156 4.515625 -2.015625 C 4.597656 -2.367188 4.640625 -2.859375 4.640625 -3.484375 L 4.640625 -6.078125 L 5.578125 -6.078125 L 5.578125 0 L 4.640625 0 L 4.640625 -0.953125 C 4.347656 -0.578125 4.0625 -0.304688 3.78125 -0.140625 C 3.5 0.0234375 3.1875 0.109375 2.84375 0.109375 Z M 2.84375 0.109375 "/></g></g><g style="fill:#000000;fill-opacity:1;"><g transform="translate(114.716944, 256.969613)"><path style="stroke:none" d="M 1.71875 0 L 0.78125 0 L 0.78125 -6.078125 L 1.71875 -6.078125 L 1.71875 -5.25 C 2 -5.59375 2.296875 -5.832031 2.609375 -5.96875 C 2.929688 -6.113281 3.296875 -6.1875 3.703125 -6.1875 L 3.75 -6.1875 L 3.75 -5.265625 L 3.4375 -5.265625 C 2.9375 -5.265625 2.539062 -5.113281 2.25 -4.8125 C 2.070312 -4.644531 1.9375 -4.425781 1.84375 -4.15625 C 1.757812 -3.894531 1.71875 -3.578125 1.71875 -3.203125 Z M 1.71875 0 "/></g></g><g style="fill:#000000;fill-opacity:1;"><g transform="translate(118.707121, 256.969613)"><path style="stroke:none" d="M 1.734375 0 L 0.796875 0 L 0.796875 -8.390625 L 1.734375 -8.390625 L 1.734375 -3.65625 L 4.40625 -6.078125 L 5.703125 -6.078125 L 2.71875 -3.40625 L 5.96875 0 L 4.703125 0 L 1.734375 -3.171875 Z M 1.734375 0 "/></g></g><g style="fill:#000000;fill-opacity:1;"><g transform="translate(124.796819, 256.969613)"><path style="stroke:none" d="M 1.25 -7.125 C 1.050781 -7.125 0.878906 -7.191406 0.734375 -7.328125 C 0.597656 -7.460938 0.53125 -7.628906 0.53125 -7.828125 C 0.53125 -8.015625 0.597656 -8.171875 0.734375 -8.296875 C 0.878906 -8.429688 1.050781 -8.5 1.25 -8.5 C 1.445312 -8.5 1.613281 -8.429688 1.75 -8.296875 C 1.894531 -8.171875 1.96875 -8.015625 1.96875 -7.828125 C 1.96875 -7.628906 1.894531 -7.460938 1.75 -7.328125 C 1.613281 -7.191406 1.445312 -7.125 1.25 -7.125 Z M 1.71875 0 L 0.78125 0 L 0.78125 -6.078125 L 1.71875 -6.078125 Z M 1.71875 0 "/></g></g><g style="fill:#000000;fill-opacity:1;"><g transform="translate(127.292055, 256.969613)"><path style="stroke:none" d="M 1.6875 2.3125 L 0.78125 2.3125 L 0.78125 1.453125 L 1.359375 1.453125 C 1.523438 1.453125 1.65625 1.4375 1.75 1.40625 C 1.851562 1.382812 1.941406 1.328125 2.015625 1.234375 C 2.097656 1.148438 2.175781 1.007812 2.25 0.8125 L 2.578125 -0.09375 L 0.203125 -6.078125 L 1.234375 -6.078125 L 3.078125 -1.359375 L 4.796875 -6.078125 L 5.8125 -6.078125 L 3.109375 1.21875 C 2.953125 1.664062 2.765625 1.957031 2.546875 2.09375 C 2.335938 2.238281 2.050781 2.3125 1.6875 2.3125 Z M 1.6875 2.3125 "/></g></g><g style="fill:#000000;fill-opacity:1;"><g transform="translate(133.326787, 256.969613)"><path style="stroke:none" d="M 3.484375 0.109375 C 2.910156 0.109375 2.398438 -0.0234375 1.953125 -0.296875 C 1.503906 -0.578125 1.15625 -0.953125 0.90625 -1.421875 C 0.65625 -1.898438 0.53125 -2.4375 0.53125 -3.03125 C 0.53125 -3.570312 0.640625 -4.082031 0.859375 -4.5625 C 1.085938 -5.050781 1.421875 -5.441406 1.859375 -5.734375 C 2.304688 -6.035156 2.84375 -6.1875 3.46875 -6.1875 C 3.976562 -6.1875 4.453125 -6.070312 4.890625 -5.84375 C 5.335938 -5.625 5.703125 -5.289062 5.984375 -4.84375 C 6.265625 -4.394531 6.40625 -3.84375 6.40625 -3.1875 L 6.40625 -2.859375 L 1.453125 -2.859375 C 1.460938 -2.648438 1.503906 -2.445312 1.578125 -2.25 C 1.722656 -1.78125 1.960938 -1.40625 2.296875 -1.125 C 2.640625 -0.851562 3.03125 -0.71875 3.46875 -0.71875 C 3.9375 -0.71875 4.320312 -0.835938 4.625 -1.078125 C 4.9375 -1.328125 5.160156 -1.617188 5.296875 -1.953125 L 6.296875 -1.953125 C 6.171875 -1.578125 5.984375 -1.234375 5.734375 -0.921875 C 5.484375 -0.609375 5.171875 -0.359375 4.796875 -0.171875 C 4.429688 0.015625 3.992188 0.109375 3.484375 0.109375 Z M 1.546875 -3.6875 L 5.40625 -3.6875 C 5.394531 -3.789062 5.378906 -3.890625 5.359375 -3.984375 C 5.335938 -4.085938 5.304688 -4.1875 5.265625 -4.28125 C 5.109375 -4.632812 4.867188 -4.90625 4.546875 -5.09375 C 4.222656 -5.28125 3.867188 -5.375 3.484375 -5.375 C 3.078125 -5.375 2.722656 -5.273438 2.421875 -5.078125 C 2.117188 -4.890625 1.882812 -4.625 1.71875 -4.28125 C 1.675781 -4.1875 1.640625 -4.085938 1.609375 -3.984375 C 1.578125 -3.878906 1.554688 -3.78125 1.546875 -3.6875 Z M 1.546875 -3.6875 "/></g></g><g style="fill:#000000;fill-opacity:1;"><g transform="translate(140.240895, 256.969613)"><path style="stroke:none" d="M 0.84375 -5.4375 L 0.84375 -5.921875 C 1.1875 -5.972656 1.445312 -6.101562 1.625 -6.3125 C 1.8125 -6.53125 1.90625 -6.796875 1.90625 -7.109375 C 1.90625 -7.222656 1.894531 -7.335938 1.875 -7.453125 C 1.78125 -7.285156 1.613281 -7.203125 1.375 -7.203125 C 1.21875 -7.203125 1.082031 -7.257812 0.96875 -7.375 C 0.851562 -7.488281 0.796875 -7.640625 0.796875 -7.828125 C 0.796875 -8.023438 0.859375 -8.1875 0.984375 -8.3125 C 1.117188 -8.4375 1.289062 -8.5 1.5 -8.5 C 1.800781 -8.5 2.035156 -8.378906 2.203125 -8.140625 C 2.367188 -7.910156 2.453125 -7.609375 2.453125 -7.234375 C 2.453125 -6.960938 2.398438 -6.695312 2.296875 -6.4375 C 2.191406 -6.175781 2.019531 -5.953125 1.78125 -5.765625 C 1.550781 -5.585938 1.238281 -5.476562 0.84375 -5.4375 Z M 0.84375 -5.4375 "/></g></g><g style="fill:#000000;fill-opacity:1;"><g transform="translate(143.417649, 256.969613)"><path style="stroke:none" d="M 1.71875 0 L 0.78125 0 L 0.78125 -6.078125 L 1.71875 -6.078125 L 1.71875 -5.140625 C 2.019531 -5.535156 2.3125 -5.804688 2.59375 -5.953125 C 2.882812 -6.109375 3.191406 -6.1875 3.515625 -6.1875 C 3.992188 -6.1875 4.375 -6.097656 4.65625 -5.921875 C 4.945312 -5.742188 5.164062 -5.515625 5.3125 -5.234375 C 5.457031 -4.960938 5.539062 -4.679688 5.5625 -4.390625 C 5.582031 -4.097656 5.59375 -3.851562 5.59375 -3.65625 L 5.59375 0 L 4.65625 0 L 4.65625 -3.65625 C 4.65625 -4.300781 4.539062 -4.757812 4.3125 -5.03125 C 4.101562 -5.257812 3.789062 -5.375 3.375 -5.375 C 3.125 -5.375 2.90625 -5.332031 2.71875 -5.25 C 2.539062 -5.164062 2.390625 -5.054688 2.265625 -4.921875 C 2.066406 -4.710938 1.925781 -4.425781 1.84375 -4.0625 C 1.757812 -3.707031 1.71875 -3.21875 1.71875 -2.59375 Z M 1.71875 0 "/></g></g><g style="fill:#000000;fill-opacity:1;"><g transform="translate(149.749172, 256.969613)"><path style="stroke:none" d="M 1.25 -7.125 C 1.050781 -7.125 0.878906 -7.191406 0.734375 -7.328125 C 0.597656 -7.460938 0.53125 -7.628906 0.53125 -7.828125 C 0.53125 -8.015625 0.597656 -8.171875 0.734375 -8.296875 C 0.878906 -8.429688 1.050781 -8.5 1.25 -8.5 C 1.445312 -8.5 1.613281 -8.429688 1.75 -8.296875 C 1.894531 -8.171875 1.96875 -8.015625 1.96875 -7.828125 C 1.96875 -7.628906 1.894531 -7.460938 1.75 -7.328125 C 1.613281 -7.191406 1.445312 -7.125 1.25 -7.125 Z M 1.71875 0 L 0.78125 0 L 0.78125 -6.078125 L 1.71875 -6.078125 Z M 1.71875 0 "/></g></g><g style="fill:#000000;fill-opacity:1;"><g transform="translate(152.244408, 256.969613)"><path style="stroke:none" d="M 1.71875 0 L 0.78125 0 L 0.78125 -6.078125 L 1.71875 -6.078125 L 1.71875 -5.140625 C 2.019531 -5.535156 2.3125 -5.804688 2.59375 -5.953125 C 2.882812 -6.109375 3.191406 -6.1875 3.515625 -6.1875 C 3.992188 -6.1875 4.375 -6.097656 4.65625 -5.921875 C 4.945312 -5.742188 5.164062 -5.515625 5.3125 -5.234375 C 5.457031 -4.960938 5.539062 -4.679688 5.5625 -4.390625 C 5.582031 -4.097656 5.59375 -3.851562 5.59375 -3.65625 L 5.59375 0 L 4.65625 0 L 4.65625 -3.65625 C 4.65625 -4.300781 4.539062 -4.757812 4.3125 -5.03125 C 4.101562 -5.257812 3.789062 -5.375 3.375 -5.375 C 3.125 -5.375 2.90625 -5.332031 2.71875 -5.25 C 2.539062 -5.164062 2.390625 -5.054688 2.265625 -4.921875 C 2.066406 -4.710938 1.925781 -4.425781 1.84375 -4.0625 C 1.757812 -3.707031 1.71875 -3.21875 1.71875 -2.59375 Z M 1.71875 0 "/></g></g><g style="fill:#000000;fill-opacity:1;"><g transform="translate(158.575931, 256.969613)"><path style="stroke:none" d=""/></g></g><g style="fill:#000000;fill-opacity:1;"><g transform="translate(161.653751, 256.969613)"><path style="stroke:none" d="M 3.59375 0.109375 C 3.007812 0.109375 2.5 0 2.0625 -0.21875 C 1.632812 -0.445312 1.300781 -0.753906 1.0625 -1.140625 C 0.820312 -1.535156 0.703125 -1.988281 0.703125 -2.5 C 0.703125 -2.976562 0.835938 -3.410156 1.109375 -3.796875 C 1.378906 -4.191406 1.769531 -4.457031 2.28125 -4.59375 C 1.882812 -4.707031 1.578125 -4.921875 1.359375 -5.234375 C 1.148438 -5.546875 1.046875 -5.882812 1.046875 -6.25 C 1.046875 -6.695312 1.15625 -7.085938 1.375 -7.421875 C 1.59375 -7.765625 1.890625 -8.03125 2.265625 -8.21875 C 2.648438 -8.40625 3.09375 -8.5 3.59375 -8.5 C 4.082031 -8.5 4.515625 -8.40625 4.890625 -8.21875 C 5.273438 -8.03125 5.578125 -7.765625 5.796875 -7.421875 C 6.015625 -7.085938 6.125 -6.695312 6.125 -6.25 C 6.125 -5.882812 6.015625 -5.539062 5.796875 -5.21875 C 5.585938 -4.90625 5.285156 -4.695312 4.890625 -4.59375 C 5.410156 -4.457031 5.800781 -4.191406 6.0625 -3.796875 C 6.332031 -3.410156 6.46875 -2.976562 6.46875 -2.5 C 6.46875 -1.988281 6.347656 -1.535156 6.109375 -1.140625 C 5.867188 -0.753906 5.53125 -0.445312 5.09375 -0.21875 C 4.664062 0 4.164062 0.109375 3.59375 0.109375 Z M 3.59375 -4.921875 C 4.082031 -4.921875 4.457031 -5.035156 4.71875 -5.265625 C 4.976562 -5.503906 5.109375 -5.828125 5.109375 -6.234375 C 5.109375 -6.640625 4.96875 -6.96875 4.6875 -7.21875 C 4.414062 -7.46875 4.050781 -7.59375 3.59375 -7.59375 C 3.125 -7.59375 2.75 -7.46875 2.46875 -7.21875 C 2.195312 -6.96875 2.0625 -6.640625 2.0625 -6.234375 C 2.0625 -5.828125 2.191406 -5.503906 2.453125 -5.265625 C 2.710938 -5.035156 3.09375 -4.921875 3.59375 -4.921875 Z M 3.59375 -0.796875 C 4.125 -0.796875 4.566406 -0.9375 4.921875 -1.21875 C 5.273438 -1.507812 5.453125 -1.9375 5.453125 -2.5 C 5.453125 -2.988281 5.285156 -3.382812 4.953125 -3.6875 C 4.628906 -4 4.175781 -4.15625 3.59375 -4.15625 C 3.007812 -4.15625 2.550781 -4 2.21875 -3.6875 C 1.882812 -3.382812 1.71875 -2.988281 1.71875 -2.5 C 1.71875 -1.9375 1.894531 -1.507812 2.25 -1.21875 C 2.601562 -0.9375 3.050781 -0.796875 3.59375 -0.796875 Z M 3.59375 -0.796875 "/></g></g><g style="fill:#000000;fill-opacity:1;"><g transform="translate(168.820681, 256.969613)"><path style="stroke:none" d="M 3.875 0 L 2.859375 0 L 2.859375 -7.109375 C 2.554688 -6.722656 2.195312 -6.398438 1.78125 -6.140625 C 1.375 -5.890625 0.929688 -5.707031 0.453125 -5.59375 L 0.453125 -6.578125 C 0.828125 -6.660156 1.171875 -6.800781 1.484375 -7 C 1.804688 -7.195312 2.085938 -7.421875 2.328125 -7.671875 C 2.566406 -7.929688 2.75 -8.171875 2.875 -8.390625 L 3.875 -8.390625 Z M 3.875 0 "/></g></g><g style="fill:#000000;fill-opacity:1;"><g transform="translate(173.569327, 256.969613)"><path style="stroke:none" d=""/></g></g><g style="fill:#000000;fill-opacity:1;"><g transform="translate(176.647146, 256.969613)"><path style="stroke:none" d="M 1.25 -7.125 C 1.050781 -7.125 0.878906 -7.191406 0.734375 -7.328125 C 0.597656 -7.460938 0.53125 -7.628906 0.53125 -7.828125 C 0.53125 -8.015625 0.597656 -8.171875 0.734375 -8.296875 C 0.878906 -8.429688 1.050781 -8.5 1.25 -8.5 C 1.445312 -8.5 1.613281 -8.429688 1.75 -8.296875 C 1.894531 -8.171875 1.96875 -8.015625 1.96875 -7.828125 C 1.96875 -7.628906 1.894531 -7.460938 1.75 -7.328125 C 1.613281 -7.191406 1.445312 -7.125 1.25 -7.125 Z M 1.71875 0 L 0.78125 0 L 0.78125 -6.078125 L 1.71875 -6.078125 Z M 1.71875 0 "/></g></g><g style="fill:#000000;fill-opacity:1;"><g transform="translate(179.142382, 256.969613)"><path style="stroke:none" d="M 2.71875 0 L 2.203125 0 C 1.898438 0 1.640625 -0.0390625 1.421875 -0.125 C 1.203125 -0.207031 1.035156 -0.359375 0.921875 -0.578125 C 0.816406 -0.804688 0.765625 -1.125 0.765625 -1.53125 L 0.765625 -8.390625 L 1.6875 -8.390625 L 1.6875 -1.671875 C 1.6875 -1.484375 1.695312 -1.328125 1.71875 -1.203125 C 1.75 -1.078125 1.816406 -0.984375 1.921875 -0.921875 C 2.023438 -0.859375 2.191406 -0.828125 2.421875 -0.828125 L 2.71875 -0.828125 Z M 2.71875 0 "/></g></g><g style="fill:#000000;fill-opacity:1;"><g transform="translate(182.187231, 256.969613)"><path style="stroke:none" d="M 1.25 -7.125 C 1.050781 -7.125 0.878906 -7.191406 0.734375 -7.328125 C 0.597656 -7.460938 0.53125 -7.628906 0.53125 -7.828125 C 0.53125 -8.015625 0.597656 -8.171875 0.734375 -8.296875 C 0.878906 -8.429688 1.050781 -8.5 1.25 -8.5 C 1.445312 -8.5 1.613281 -8.429688 1.75 -8.296875 C 1.894531 -8.171875 1.96875 -8.015625 1.96875 -7.828125 C 1.96875 -7.628906 1.894531 -7.460938 1.75 -7.328125 C 1.613281 -7.191406 1.445312 -7.125 1.25 -7.125 Z M 1.71875 0 L 0.78125 0 L 0.78125 -6.078125 L 1.71875 -6.078125 Z M 1.71875 0 "/></g></g><g style="fill:#000000;fill-opacity:1;"><g transform="translate(184.682466, 256.969613)"><path style="stroke:none" d="M 1.71875 0 L 0.78125 0 L 0.78125 -6.078125 L 1.71875 -6.078125 L 1.71875 -5.140625 C 2.019531 -5.535156 2.3125 -5.804688 2.59375 -5.953125 C 2.882812 -6.109375 3.191406 -6.1875 3.515625 -6.1875 C 3.992188 -6.1875 4.375 -6.097656 4.65625 -5.921875 C 4.945312 -5.742188 5.164062 -5.515625 5.3125 -5.234375 C 5.457031 -4.960938 5.539062 -4.679688 5.5625 -4.390625 C 5.582031 -4.097656 5.59375 -3.851562 5.59375 -3.65625 L 5.59375 0 L 4.65625 0 L 4.65625 -3.65625 C 4.65625 -4.300781 4.539062 -4.757812 4.3125 -5.03125 C 4.101562 -5.257812 3.789062 -5.375 3.375 -5.375 C 3.125 -5.375 2.90625 -5.332031 2.71875 -5.25 C 2.539062 -5.164062 2.390625 -5.054688 2.265625 -4.921875 C 2.066406 -4.710938 1.925781 -4.425781 1.84375 -4.0625 C 1.757812 -3.707031 1.71875 -3.21875 1.71875 -2.59375 Z M 1.71875 0 "/></g></g><g style="fill:#000000;fill-opacity:1;"><g transform="translate(191.01399, 256.969613)"><path style="stroke:none" d="M 3.484375 0.109375 C 2.910156 0.109375 2.398438 -0.0234375 1.953125 -0.296875 C 1.503906 -0.578125 1.15625 -0.953125 0.90625 -1.421875 C 0.65625 -1.898438 0.53125 -2.4375 0.53125 -3.03125 C 0.53125 -3.570312 0.640625 -4.082031 0.859375 -4.5625 C 1.085938 -5.050781 1.421875 -5.441406 1.859375 -5.734375 C 2.304688 -6.035156 2.84375 -6.1875 3.46875 -6.1875 C 3.976562 -6.1875 4.453125 -6.070312 4.890625 -5.84375 C 5.335938 -5.625 5.703125 -5.289062 5.984375 -4.84375 C 6.265625 -4.394531 6.40625 -3.84375 6.40625 -3.1875 L 6.40625 -2.859375 L 1.453125 -2.859375 C 1.460938 -2.648438 1.503906 -2.445312 1.578125 -2.25 C 1.722656 -1.78125 1.960938 -1.40625 2.296875 -1.125 C 2.640625 -0.851562 3.03125 -0.71875 3.46875 -0.71875 C 3.9375 -0.71875 4.320312 -0.835938 4.625 -1.078125 C 4.9375 -1.328125 5.160156 -1.617188 5.296875 -1.953125 L 6.296875 -1.953125 C 6.171875 -1.578125 5.984375 -1.234375 5.734375 -0.921875 C 5.484375 -0.609375 5.171875 -0.359375 4.796875 -0.171875 C 4.429688 0.015625 3.992188 0.109375 3.484375 0.109375 Z M 1.546875 -3.6875 L 5.40625 -3.6875 C 5.394531 -3.789062 5.378906 -3.890625 5.359375 -3.984375 C 5.335938 -4.085938 5.304688 -4.1875 5.265625 -4.28125 C 5.109375 -4.632812 4.867188 -4.90625 4.546875 -5.09375 C 4.222656 -5.28125 3.867188 -5.375 3.484375 -5.375 C 3.078125 -5.375 2.722656 -5.273438 2.421875 -5.078125 C 2.117188 -4.890625 1.882812 -4.625 1.71875 -4.28125 C 1.675781 -4.1875 1.640625 -4.085938 1.609375 -3.984375 C 1.578125 -3.878906 1.554688 -3.78125 1.546875 -3.6875 Z M 1.546875 -3.6875 "/></g></g><g style="fill:#000000;fill-opacity:1;"><g transform="translate(197.928098, 256.969613)"><path style="stroke:none" d=""/></g></g><g style="fill:#000000;fill-opacity:1;"><g transform="translate(201.005917, 256.969613)"><path style="stroke:none" d="M 1.734375 0 L 0.796875 0 L 0.796875 -8.390625 L 1.734375 -8.390625 L 1.734375 -5.140625 C 2.035156 -5.535156 2.328125 -5.804688 2.609375 -5.953125 C 2.890625 -6.109375 3.195312 -6.1875 3.53125 -6.1875 C 4.007812 -6.1875 4.390625 -6.097656 4.671875 -5.921875 C 4.960938 -5.742188 5.179688 -5.515625 5.328125 -5.234375 C 5.472656 -4.960938 5.554688 -4.679688 5.578125 -4.390625 C 5.597656 -4.097656 5.609375 -3.851562 5.609375 -3.65625 L 5.609375 0 L 4.671875 0 L 4.671875 -3.65625 C 4.671875 -4.300781 4.554688 -4.757812 4.328125 -5.03125 C 4.117188 -5.257812 3.804688 -5.375 3.390625 -5.375 C 3.140625 -5.375 2.921875 -5.332031 2.734375 -5.25 C 2.554688 -5.164062 2.40625 -5.054688 2.28125 -4.921875 C 2.082031 -4.710938 1.941406 -4.425781 1.859375 -4.0625 C 1.773438 -3.707031 1.734375 -3.21875 1.734375 -2.59375 Z M 1.734375 0 "/></g></g><g style="fill:#000000;fill-opacity:1;"><g transform="translate(207.348438, 256.969613)"><path style="stroke:none" d="M 1.71875 0 L 0.78125 0 L 0.78125 -6.078125 L 1.71875 -6.078125 Z M 1.71875 0 "/></g></g><g style="fill:#000000;fill-opacity:1;"><g transform="translate(209.843674, 256.969613)"><path style="stroke:none" d="M 5.4375 0 L 0.375 0 L 0.375 -0.796875 L 4.328125 -5.265625 L 0.578125 -5.265625 L 0.578125 -6.078125 L 5.46875 -6.078125 L 5.46875 -5.203125 L 1.578125 -0.828125 L 5.4375 -0.828125 Z M 5.4375 0 "/></g></g><g style="fill:#000000;fill-opacity:1;"><g transform="translate(215.702533, 256.969613)"><path style="stroke:none" d="M 2.71875 0 L 2.203125 0 C 1.898438 0 1.640625 -0.0390625 1.421875 -0.125 C 1.203125 -0.207031 1.035156 -0.359375 0.921875 -0.578125 C 0.816406 -0.804688 0.765625 -1.125 0.765625 -1.53125 L 0.765625 -8.390625 L 1.6875 -8.390625 L 1.6875 -1.671875 C 1.6875 -1.484375 1.695312 -1.328125 1.71875 -1.203125 C 1.75 -1.078125 1.816406 -0.984375 1.921875 -0.921875 C 2.023438 -0.859375 2.191406 -0.828125 2.421875 -0.828125 L 2.71875 -0.828125 Z M 2.71875 0 "/></g></g><g style="fill:#000000;fill-opacity:1;"><g transform="translate(218.747383, 256.969613)"><path style="stroke:none" d="M 1.71875 0 L 0.78125 0 L 0.78125 -6.078125 L 1.71875 -6.078125 Z M 1.71875 0 "/></g></g><g style="fill:#000000;fill-opacity:1;"><g transform="translate(221.242618, 256.969613)"><path style="stroke:none" d=""/></g></g><g style="fill:#000000;fill-opacity:1;"><g transform="translate(224.320438, 256.969613)"><path style="stroke:none" d="M 1.734375 0 L 0.796875 0 L 0.796875 -8.390625 L 1.734375 -8.390625 L 1.734375 -3.65625 L 4.40625 -6.078125 L 5.703125 -6.078125 L 2.71875 -3.40625 L 5.96875 0 L 4.703125 0 L 1.734375 -3.171875 Z M 1.734375 0 "/></g></g><g style="fill:#000000;fill-opacity:1;"><g transform="translate(230.410136, 256.969613)"><path style="stroke:none" d="M 2.515625 0.109375 C 1.898438 0.109375 1.414062 -0.0390625 1.0625 -0.34375 C 0.707031 -0.65625 0.53125 -1.078125 0.53125 -1.609375 C 0.53125 -2.140625 0.726562 -2.5625 1.125 -2.875 C 1.445312 -3.125 1.910156 -3.3125 2.515625 -3.4375 L 4.6875 -3.859375 C 4.6875 -4.335938 4.5625 -4.703125 4.3125 -4.953125 C 4.03125 -5.234375 3.65625 -5.375 3.1875 -5.375 C 2.8125 -5.375 2.484375 -5.273438 2.203125 -5.078125 C 1.929688 -4.878906 1.757812 -4.601562 1.6875 -4.25 L 0.765625 -4.25 C 0.835938 -4.675781 0.988281 -5.03125 1.21875 -5.3125 C 1.457031 -5.601562 1.75 -5.820312 2.09375 -5.96875 C 2.445312 -6.113281 2.816406 -6.1875 3.203125 -6.1875 C 3.554688 -6.1875 3.882812 -6.132812 4.1875 -6.03125 C 4.5 -5.9375 4.765625 -5.78125 4.984375 -5.5625 C 5.191406 -5.363281 5.335938 -5.132812 5.421875 -4.875 C 5.515625 -4.613281 5.570312 -4.367188 5.59375 -4.140625 C 5.613281 -3.910156 5.625 -3.726562 5.625 -3.59375 L 5.625 0 L 4.6875 0 L 4.6875 -0.953125 C 4.46875 -0.648438 4.222656 -0.410156 3.953125 -0.234375 C 3.742188 -0.117188 3.519531 -0.0351562 3.28125 0.015625 C 3.039062 0.078125 2.785156 0.109375 2.515625 0.109375 Z M 2.625 -0.71875 C 2.988281 -0.71875 3.3125 -0.785156 3.59375 -0.921875 C 4.019531 -1.148438 4.3125 -1.441406 4.46875 -1.796875 C 4.625 -2.160156 4.703125 -2.597656 4.703125 -3.109375 L 2.71875 -2.703125 C 2.257812 -2.617188 1.925781 -2.476562 1.71875 -2.28125 C 1.550781 -2.113281 1.46875 -1.898438 1.46875 -1.640625 C 1.46875 -1.359375 1.570312 -1.132812 1.78125 -0.96875 C 1.988281 -0.800781 2.269531 -0.71875 2.625 -0.71875 Z M 2.625 -0.71875 "/></g></g><g style="fill:#000000;fill-opacity:1;"><g transform="translate(236.741659, 256.969613)"><path style="stroke:none" d="M 1.71875 0 L 0.78125 0 L 0.78125 -6.078125 L 1.71875 -6.078125 L 1.71875 -5.25 C 2 -5.59375 2.296875 -5.832031 2.609375 -5.96875 C 2.929688 -6.113281 3.296875 -6.1875 3.703125 -6.1875 L 3.75 -6.1875 L 3.75 -5.265625 L 3.4375 -5.265625 C 2.9375 -5.265625 2.539062 -5.113281 2.25 -4.8125 C 2.070312 -4.644531 1.9375 -4.425781 1.84375 -4.15625 C 1.757812 -3.894531 1.71875 -3.578125 1.71875 -3.203125 Z M 1.71875 0 "/></g></g><g style="fill:#000000;fill-opacity:1;"><g transform="translate(240.731836, 256.969613)"><path style="stroke:none" d="M 3.46875 2.421875 C 3.050781 2.421875 2.648438 2.359375 2.265625 2.234375 C 1.878906 2.117188 1.550781 1.921875 1.28125 1.640625 C 1.007812 1.367188 0.832031 0.988281 0.75 0.5 L 1.703125 0.5 C 1.796875 0.851562 1.984375 1.125 2.265625 1.3125 C 2.554688 1.5 2.953125 1.59375 3.453125 1.59375 C 4.085938 1.59375 4.546875 1.445312 4.828125 1.15625 C 5.117188 0.863281 5.265625 0.46875 5.265625 -0.03125 L 5.265625 -0.953125 C 4.953125 -0.546875 4.644531 -0.265625 4.34375 -0.109375 C 4.039062 0.0351562 3.6875 0.109375 3.28125 0.109375 C 2.738281 0.109375 2.265625 -0.0195312 1.859375 -0.28125 C 1.453125 -0.550781 1.132812 -0.921875 0.90625 -1.390625 C 0.6875 -1.859375 0.578125 -2.398438 0.578125 -3.015625 C 0.578125 -3.640625 0.6875 -4.191406 0.90625 -4.671875 C 1.132812 -5.148438 1.445312 -5.519531 1.84375 -5.78125 C 2.25 -6.050781 2.722656 -6.1875 3.265625 -6.1875 C 3.691406 -6.1875 4.054688 -6.109375 4.359375 -5.953125 C 4.660156 -5.804688 4.960938 -5.535156 5.265625 -5.140625 L 5.265625 -6.078125 L 6.203125 -6.078125 L 6.203125 -0.203125 C 6.203125 0.453125 6.082031 0.96875 5.84375 1.34375 C 5.613281 1.726562 5.289062 2.003906 4.875 2.171875 C 4.46875 2.335938 4 2.421875 3.46875 2.421875 Z M 3.359375 -0.71875 C 3.742188 -0.71875 4.082031 -0.816406 4.375 -1.015625 C 4.664062 -1.210938 4.890625 -1.488281 5.046875 -1.84375 C 5.210938 -2.195312 5.296875 -2.597656 5.296875 -3.046875 C 5.296875 -3.492188 5.210938 -3.890625 5.046875 -4.234375 C 4.878906 -4.585938 4.648438 -4.863281 4.359375 -5.0625 C 4.066406 -5.269531 3.734375 -5.375 3.359375 -5.375 C 2.984375 -5.375 2.65625 -5.269531 2.375 -5.0625 C 2.09375 -4.851562 1.875 -4.570312 1.71875 -4.21875 C 1.570312 -3.875 1.5 -3.484375 1.5 -3.046875 C 1.5 -2.609375 1.570312 -2.210938 1.71875 -1.859375 C 1.875 -1.503906 2.09375 -1.222656 2.375 -1.015625 C 2.65625 -0.816406 2.984375 -0.71875 3.359375 -0.71875 Z M 3.359375 -0.71875 "/></g></g><g style="fill:#000000;fill-opacity:1;"><g transform="translate(247.711896, 256.969613)"><path style="stroke:none" d="M 3.5 0.109375 C 2.914062 0.109375 2.398438 -0.0234375 1.953125 -0.296875 C 1.503906 -0.566406 1.15625 -0.941406 0.90625 -1.421875 C 0.65625 -1.898438 0.53125 -2.445312 0.53125 -3.0625 C 0.53125 -3.664062 0.65625 -4.203125 0.90625 -4.671875 C 1.15625 -5.140625 1.503906 -5.507812 1.953125 -5.78125 C 2.398438 -6.050781 2.914062 -6.1875 3.5 -6.1875 C 4.070312 -6.1875 4.582031 -6.050781 5.03125 -5.78125 C 5.488281 -5.507812 5.84375 -5.140625 6.09375 -4.671875 C 6.351562 -4.203125 6.484375 -3.664062 6.484375 -3.0625 C 6.484375 -2.457031 6.359375 -1.914062 6.109375 -1.4375 C 5.859375 -0.957031 5.503906 -0.578125 5.046875 -0.296875 C 4.597656 -0.0234375 4.082031 0.109375 3.5 0.109375 Z M 3.5 -0.71875 C 3.882812 -0.71875 4.226562 -0.816406 4.53125 -1.015625 C 4.84375 -1.222656 5.085938 -1.503906 5.265625 -1.859375 C 5.453125 -2.210938 5.546875 -2.613281 5.546875 -3.0625 C 5.546875 -3.5 5.457031 -3.890625 5.28125 -4.234375 C 5.101562 -4.585938 4.859375 -4.863281 4.546875 -5.0625 C 4.242188 -5.269531 3.894531 -5.375 3.5 -5.375 C 3.113281 -5.375 2.765625 -5.273438 2.453125 -5.078125 C 2.140625 -4.878906 1.894531 -4.601562 1.71875 -4.25 C 1.550781 -3.90625 1.46875 -3.507812 1.46875 -3.0625 C 1.46875 -2.613281 1.554688 -2.207031 1.734375 -1.84375 C 1.910156 -1.488281 2.148438 -1.210938 2.453125 -1.015625 C 2.765625 -0.816406 3.113281 -0.71875 3.5 -0.71875 Z M 3.5 -0.71875 "/></g></g><g style="fill:#000000;fill-opacity:1;"><g transform="translate(254.735925, 256.969613)"><path style="stroke:none" d=""/></g></g><g style="fill:#000000;fill-opacity:1;"><g transform="translate(257.813744, 256.969613)"><path style="stroke:none" d="M 2.515625 0.109375 C 1.898438 0.109375 1.414062 -0.0390625 1.0625 -0.34375 C 0.707031 -0.65625 0.53125 -1.078125 0.53125 -1.609375 C 0.53125 -2.140625 0.726562 -2.5625 1.125 -2.875 C 1.445312 -3.125 1.910156 -3.3125 2.515625 -3.4375 L 4.6875 -3.859375 C 4.6875 -4.335938 4.5625 -4.703125 4.3125 -4.953125 C 4.03125 -5.234375 3.65625 -5.375 3.1875 -5.375 C 2.8125 -5.375 2.484375 -5.273438 2.203125 -5.078125 C 1.929688 -4.878906 1.757812 -4.601562 1.6875 -4.25 L 0.765625 -4.25 C 0.835938 -4.675781 0.988281 -5.03125 1.21875 -5.3125 C 1.457031 -5.601562 1.75 -5.820312 2.09375 -5.96875 C 2.445312 -6.113281 2.816406 -6.1875 3.203125 -6.1875 C 3.554688 -6.1875 3.882812 -6.132812 4.1875 -6.03125 C 4.5 -5.9375 4.765625 -5.78125 4.984375 -5.5625 C 5.191406 -5.363281 5.335938 -5.132812 5.421875 -4.875 C 5.515625 -4.613281 5.570312 -4.367188 5.59375 -4.140625 C 5.613281 -3.910156 5.625 -3.726562 5.625 -3.59375 L 5.625 0 L 4.6875 0 L 4.6875 -0.953125 C 4.46875 -0.648438 4.222656 -0.410156 3.953125 -0.234375 C 3.742188 -0.117188 3.519531 -0.0351562 3.28125 0.015625 C 3.039062 0.078125 2.785156 0.109375 2.515625 0.109375 Z M 2.625 -0.71875 C 2.988281 -0.71875 3.3125 -0.785156 3.59375 -0.921875 C 4.019531 -1.148438 4.3125 -1.441406 4.46875 -1.796875 C 4.625 -2.160156 4.703125 -2.597656 4.703125 -3.109375 L 2.71875 -2.703125 C 2.257812 -2.617188 1.925781 -2.476562 1.71875 -2.28125 C 1.550781 -2.113281 1.46875 -1.898438 1.46875 -1.640625 C 1.46875 -1.359375 1.570312 -1.132812 1.78125 -0.96875 C 1.988281 -0.800781 2.269531 -0.71875 2.625 -0.71875 Z M 2.625 -0.71875 "/></g></g><g style="fill:#000000;fill-opacity:1;"><g transform="translate(264.145268, 256.969613)"><path style="stroke:none" d="M 3.5 -6.6875 C 2.90625 -6.6875 2.457031 -6.832031 2.15625 -7.125 C 1.863281 -7.425781 1.695312 -7.832031 1.65625 -8.34375 L 2.34375 -8.34375 C 2.375 -8.019531 2.492188 -7.773438 2.703125 -7.609375 C 2.921875 -7.441406 3.1875 -7.359375 3.5 -7.359375 C 3.8125 -7.359375 4.070312 -7.441406 4.28125 -7.609375 C 4.488281 -7.773438 4.601562 -8.019531 4.625 -8.34375 L 5.328125 -8.34375 C 5.304688 -7.832031 5.132812 -7.425781 4.8125 -7.125 C 4.5 -6.832031 4.0625 -6.6875 3.5 -6.6875 Z M 3.46875 2.421875 C 3.050781 2.421875 2.648438 2.359375 2.265625 2.234375 C 1.878906 2.117188 1.550781 1.921875 1.28125 1.640625 C 1.007812 1.367188 0.832031 0.988281 0.75 0.5 L 1.703125 0.5 C 1.796875 0.851562 1.984375 1.125 2.265625 1.3125 C 2.554688 1.5 2.953125 1.59375 3.453125 1.59375 C 4.085938 1.59375 4.546875 1.445312 4.828125 1.15625 C 5.117188 0.863281 5.265625 0.46875 5.265625 -0.03125 L 5.265625 -0.953125 C 4.953125 -0.546875 4.644531 -0.265625 4.34375 -0.109375 C 4.039062 0.0351562 3.6875 0.109375 3.28125 0.109375 C 2.738281 0.109375 2.265625 -0.0195312 1.859375 -0.28125 C 1.453125 -0.550781 1.132812 -0.921875 0.90625 -1.390625 C 0.6875 -1.859375 0.578125 -2.398438 0.578125 -3.015625 C 0.578125 -3.640625 0.6875 -4.191406 0.90625 -4.671875 C 1.132812 -5.148438 1.445312 -5.519531 1.84375 -5.78125 C 2.25 -6.050781 2.722656 -6.1875 3.265625 -6.1875 C 3.691406 -6.1875 4.054688 -6.109375 4.359375 -5.953125 C 4.660156 -5.804688 4.960938 -5.535156 5.265625 -5.140625 L 5.265625 -6.078125 L 6.203125 -6.078125 L 6.203125 -0.203125 C 6.203125 0.453125 6.082031 0.96875 5.84375 1.34375 C 5.613281 1.726562 5.289062 2.003906 4.875 2.171875 C 4.46875 2.335938 4 2.421875 3.46875 2.421875 Z M 3.359375 -0.71875 C 3.742188 -0.71875 4.082031 -0.816406 4.375 -1.015625 C 4.664062 -1.210938 4.890625 -1.488281 5.046875 -1.84375 C 5.210938 -2.195312 5.296875 -2.597656 5.296875 -3.046875 C 5.296875 -3.492188 5.210938 -3.890625 5.046875 -4.234375 C 4.878906 -4.585938 4.648438 -4.863281 4.359375 -5.0625 C 4.066406 -5.269531 3.734375 -5.375 3.359375 -5.375 C 2.984375 -5.375 2.65625 -5.269531 2.375 -5.0625 C 2.09375 -4.851562 1.875 -4.570312 1.71875 -4.21875 C 1.570312 -3.875 1.5 -3.484375 1.5 -3.046875 C 1.5 -2.609375 1.570312 -2.210938 1.71875 -1.859375 C 1.875 -1.503906 2.09375 -1.222656 2.375 -1.015625 C 2.65625 -0.816406 2.984375 -0.71875 3.359375 -0.71875 Z M 3.359375 -0.71875 "/></g></g><g style="fill:#000000;fill-opacity:1;"><g transform="translate(271.125328, 256.969613)"><path style="stroke:none" d="M 1.71875 0 L 0.78125 0 L 0.78125 -6.078125 L 1.71875 -6.078125 Z M 1.71875 0 "/></g></g></g></svg>